Fly_normalized_Motion_pl02
version=1
nRows=12
nColumns=43
inDegrees=yes
endheader
time		pelvis_tilt		pelvis_list		pelvis_rotation		pelvis_tx		pelvis_ty		pelvis_tz		hip_flexion_r		hip_adduction_r		hip_rotation_r		knee_angle_r		ankle_angle_r		subtalar_angle_r		mtp_angle_r		hip_flexion_l		hip_adduction_l		hip_rotation_l		knee_angle_l		ankle_angle_l		subtalar_angle_l		mtp_angle_l		lumbar_extension		lumbar_bending		lumbar_rotation		neck_flexion		neck_lateral_bending		neck_rotation		arm_flex_r		arm_add_r		arm_rot_r		elbow_flex_r		pro_sup_r		wrist_flex_r		wrist_dev_r		hand_finger_flex_r		arm_flex_l		arm_add_l		arm_rot_l		elbow_flex_l		pro_sup_l		wrist_flex_l		wrist_dev_l		hand_finger_flex_l		
0.396667		-1.547131		-6.438031		86.740552		0.050763		1.799680		1.264005		49.332097		-3.760058		5.401526		-98.620422		-24.720909		-11.928876		-8.637118		65.899162		-6.015597		-0.252505		-77.228976		-18.539785		-1.866877		19.999878		-46.220414		-1.235882		4.802939		23.485820		0.905020		-3.810633		72.482758		-21.483676		8.813666		65.055081		137.959812		21.391031		4.300477		-18.142625		75.783391		-19.693537		19.424126		55.644282		128.393965		-6.813933		0.502448		-5.756932		
0.400960		-1.444972		-6.198566		86.696004		0.050685		1.794875		1.256041		49.566210		-3.609514		5.222224		-97.555573		-24.698821		-11.685656		-8.635871		65.370108		-6.136518		-0.225836		-75.672605		-18.909932		-1.861912		19.903930		-46.531137		-1.213562		4.825905		23.420105		0.831657		-3.751538		71.005301		-21.995901		8.759914		64.485102		137.955967		21.503116		4.255149		-18.170373		74.644263		-20.319775		19.336009		55.518966		128.378033		-6.988646		0.389900		-5.887053		
0.405253		-1.331186		-5.924543		86.660268		0.050617		1.790105		1.248033		49.693505		-3.437373		5.058437		-96.388342		-24.672524		-11.320784		-8.607895		64.770284		-6.260483		-0.199512		-74.093490		-19.350492		-1.878876		19.774814		-46.897939		-1.172585		4.839971		23.481155		0.725258		-3.657091		69.518258		-22.449323		8.600690		63.867031		137.929760		21.568042		4.148782		-18.220439		73.438295		-20.934143		19.149275		55.372073		128.353776		-7.241719		0.233230		-6.072728		
0.409545		-1.191431		-5.587740		86.636760		0.050531		1.785325		1.239952		49.710586		-3.268370		4.888528		-95.160542		-24.627694		-10.794120		-8.520508		64.049367		-6.416977		-0.202738		-72.468940		-19.815207		-1.884446		19.600119		-47.335831		-1.093280		4.866956		23.551485		0.569139		-3.523342		68.003831		-22.863665		8.320862		63.236338		137.880340		21.586051		3.978905		-18.276222		72.169250		-21.510488		18.842552		55.191330		128.322521		-7.492829		0.069521		-6.265349		
0.413838		-1.048662		-5.222258		86.605397		0.050292		1.780435		1.231731		49.642441		-3.124698		4.732886		-93.872838		-24.564948		-10.173964		-8.361987		63.266876		-6.587413		-0.228921		-70.852188		-20.264148		-1.780749		19.392244		-47.784089		-0.995403		4.920651		23.582666		0.382490		-3.394605		66.427796		-23.282649		7.935898		62.609759		137.823633		21.574692		3.795826		-18.334042		70.851321		-22.002929		18.436465		54.952355		128.273702		-7.615812		0.019269		-6.367239		
0.418131		-0.898167		-4.808921		86.589438		0.050053		1.775525		1.223464		49.487413		-2.984872		4.575068		-92.552773		-24.435656		-9.410322		-8.043732		62.372013		-6.751404		-0.246015		-69.179090		-20.625265		-1.527769		19.128416		-48.284900		-0.887635		4.982696		23.677821		0.187084		-3.289750		64.839296		-23.696767		7.439758		61.935744		137.770683		21.553170		3.565124		-18.437086		69.505231		-22.407817		17.879811		54.706934		128.208856		-7.569148		0.113560		-6.337565		
0.422424		-0.790912		-4.525177		86.536862		0.049765		1.769890		1.215095		49.489481		-2.891961		4.413203		-91.242572		-24.456465		-8.896284		-7.837122		61.659237		-6.943812		-0.321091		-67.608813		-21.087906		-1.136246		18.947073		-48.568798		-0.803017		5.047325		23.466840		-0.061022		-3.192638		63.126232		-24.267245		7.137031		61.405178		137.647494		21.575294		3.426375		-18.515544		68.051177		-22.925072		17.521752		54.521938		128.103956		-7.532540		0.273938		-6.269354		
0.426717		-0.668564		-4.289838		86.486759		0.049484		1.764106		1.206860		49.501987		-2.760899		4.244804		-89.887421		-24.391246		-8.396861		-7.554210		60.924737		-7.110100		-0.343819		-65.957981		-21.349199		-0.760886		18.789066		-48.813325		-0.712835		5.105549		23.395328		-0.253282		-3.111476		61.502534		-24.859535		6.935210		60.722683		137.495202		21.631796		3.324265		-18.596094		66.592428		-23.455644		17.199448		54.321190		127.996096		-7.450356		0.473796		-6.161921		
0.431010		-0.493914		-3.907797		86.404963		0.049172		1.758399		1.198392		49.295872		-2.592735		4.088150		-88.487112		-24.366669		-7.673013		-7.097296		60.043257		-7.339616		-0.315082		-64.364320		-21.842894		-0.089416		18.621282		-49.218260		-0.570863		5.176017		23.336161		-0.554566		-2.951721		59.807473		-25.457648		6.693676		60.137313		136.977310		21.558025		3.092718		-18.692031		64.869659		-24.028485		16.624340		54.384367		127.789608		-7.485811		0.811773		-6.072310		
0.435303		-0.329811		-3.580659		86.338703		0.048945		1.752323		1.189936		49.103748		-2.437102		3.891856		-87.049759		-24.310142		-7.128184		-6.541813		59.216443		-7.537148		-0.282124		-62.804249		-22.212917		0.452138		18.478857		-49.531246		-0.448037		5.208375		23.175961		-0.765271		-2.779513		58.123005		-26.092040		6.605934		59.488993		136.396463		21.516100		2.996421		-18.705097		63.136983		-24.661963		16.193018		54.430968		127.681745		-7.476279		1.156156		-5.986910		
0.439596		-0.215207		-3.411327		86.259338		0.048746		1.745787		1.181547		49.051192		-2.294621		3.718638		-85.570322		-24.258400		-6.817412		-6.243267		58.543033		-7.672000		-0.246550		-61.247256		-22.579180		0.805295		18.392667		-49.660512		-0.389745		5.248882		23.080270		-0.890009		-2.660047		56.379660		-26.716036		6.403155		58.786291		135.946144		21.537132		2.964055		-18.624350		61.460205		-25.235455		15.899405		54.289624		127.627264		-7.530853		1.404159		-5.994259		
0.443889		-0.012487		-2.992403		86.242126		0.048587		1.739530		1.172674		48.619532		-2.160727		3.440717		-84.054986		-24.105088		-6.347410		-5.555937		57.612935		-7.854503		-0.157380		-59.764128		-23.161292		1.430116		18.312108		-50.071143		-0.257806		5.279085		23.087838		-0.942431		-2.460833		54.420997		-27.204490		5.713071		58.190010		134.835744		21.420893		2.810026		-18.359753		59.520396		-25.720826		15.057666		54.386025		127.685746		-7.615676		1.691615		-6.052705		
